<?xml version="1.0" encoding="UTF-8" standalone="no"?>
<!-- Uploaded to: SVG Repo, www.svgrepo.com, Generator: SVG Repo Mixer Tools -->

<svg
   version="1.1"
   id="Icons"
   viewBox="0 0 32 32"
   xml:space="preserve"
   sodipodi:docname="Icon.svg"
   inkscape:version="1.3.2 (091e20e, 2023-11-25, custom)"
   inkscape:export-filename="Icon.png"
   inkscape:export-xdpi="959.568"
   inkscape:export-ydpi="959.568"
   xmlns:inkscape="http://www.inkscape.org/namespaces/inkscape"
   xmlns:sodipodi="http://sodipodi.sourceforge.net/DTD/sodipodi-0.dtd"
   xmlns="http://www.w3.org/2000/svg"
   xmlns:svg="http://www.w3.org/2000/svg"><defs
   id="defs3" /><sodipodi:namedview
   id="namedview3"
   pagecolor="#ffffff"
   bordercolor="#000000"
   borderopacity="0.25"
   inkscape:showpageshadow="2"
   inkscape:pageopacity="0.0"
   inkscape:pagecheckerboard="0"
   inkscape:deskcolor="#d1d1d1"
   inkscape:zoom="19.025592"
   inkscape:cx="14.165131"
   inkscape:cy="14.217692"
   inkscape:window-width="1920"
   inkscape:window-height="1057"
   inkscape:window-x="3832"
   inkscape:window-y="-8"
   inkscape:window-maximized="1"
   inkscape:current-layer="Icons" />
<style
   type="text/css"
   id="style1">
	.st0{fill:none;stroke:#000000;stroke-width:2;stroke-linecap:round;stroke-linejoin:round;stroke-miterlimit:10;}
</style>


<rect
   style="fill:#001462;fill-opacity:1;stroke:none;stroke-width:1;stroke-opacity:1"
   id="rect4"
   width="32.037167"
   height="32.037163"
   x="0"
   y="0"
   ry="0" /><g
   id="g4"
   transform="matrix(0.81881533,0,0,0.81881533,2.8989547,3.748472)"
   style="fill:#ffffff;fill-opacity:1;stroke:#ffffff;stroke-opacity:1"><path
     class="st0"
     d="M 13.537497,7.7504563 H 9.7888663 L 8.2894138,3.8768707 C 7.7895963,2.7522814 8.6642769,1.5027377 9.9138206,1.5027377 v 0 c 0.7497264,0 1.3744984,0.3748631 1.6244064,1.1245893 z"
     id="path2"
     style="fill:#ffffff;fill-opacity:1;stroke:#ffffff;stroke-opacity:1" /><g
     id="g3"
     style="fill:#ffffff;fill-opacity:1;stroke:#ffffff;stroke-opacity:1"><path
       class="st0"
       d="M 23.5,11 H 8.5 C 7.7,11 7,10.3 7,9.5 v 0 C 7,8.7 7.7,8 8.5,8 h 15 C 24.3,8 25,8.7 25,9.5 v 0 c 0,0.8 -0.7,1.5 -1.5,1.5 z"
       id="path1"
       style="fill:#ffffff;fill-opacity:1;stroke:#ffffff;stroke-opacity:1" /><path
       class="st0"
       d="M 24.1,25 C 25.9,23.3 27,20.9 27,18 27,15.3 26.1,12.9 24.5,11 H 7.5 C 5.9,12.9 5,15.3 5,18 c 0,2.9 1.1,5.2 2.9,7 L 7,25.9 c -0.6,0.6 -0.6,1.5 0,2.1 0.6,0.6 1.5,0.6 2.1,0 l 1.3,-1.3 C 12,27.5 14,28 16,28 c 2,0 4,-0.5 5.6,-1.3 l 1.3,1.3 c 0.6,0.6 1.5,0.6 2.1,0 0.6,-0.6 0.6,-1.5 0,-2.1 z"
       id="path3"
       style="fill:#ffffff;fill-opacity:1;stroke:#ffffff;stroke-opacity:1" /></g></g>
</svg>
